<svg id="Laag_2" data-name="Laag 2" xmlns="http://www.w3.org/2000/svg" viewBox="0 0 609.5 211">
  <defs>
    <style>
      .cls-1 {
        fill: none;
      }

      .cls-2 {
        fill: #f7eac4;
        stroke: #212121;
        stroke-miterlimit: 10;
        stroke-width: 7px;
      }
    </style>
  </defs>
  <g id="Laag_1-2" data-name="Laag 1">
    <g>
      <g>
        <path class="cls-2" d="m604.01,129.65c1.78-25.19,6.72-65.35-11.13-86.72-13.56-16.24-38.28-11.47-56.19-10.57-58.79,2.96-120.1-.96-178.25,1.68-18.63.85-37.28.98-55.93.7-16.72-.25-36.31-8.44-51.14,2.49-19.39,14.29-36.57,31.97-58.06,43.19-7.57,3.95-27.36,12.94-27.36,23.33,0,31.47,46.6,51.27,69.43,63.81,42.05,23.11,85.16,2.86,129.85,4.17,31.1.91,62.27,2.65,93.4,2.49,2.44-.01,5.11-.11,6.96-1.7,1.53-1.32,2.16-3.37,2.71-5.31,1.94-6.8,8.24-12.62,11.59-6.39,10.06,18.71,33.52,15.8,51.26,16.69,8.18.41,16.33,1.46,24.5,1.94,13.07.77,35.03,2.56,43.13-10.6,4.86-7.89,4.54-29.49,5.23-39.2Z"/>
        <rect class="cls-1" width="606" height="211"/>
      </g>
      <g>
        <path d="m371.18,125.52c-4.26,0-7.73-.9-10.42-2.69-2.69-1.79-4.67-4.22-5.95-7.29-1.28-3.07-1.92-6.51-1.92-10.32s.58-7.14,1.75-10.52c1.17-3.38,2.79-6.4,4.88-9.04,2.08-2.64,4.54-4.74,7.36-6.29,2.82-1.55,5.89-2.32,9.21-2.32,2.24,0,4.03.33,5.38.97,1.34.65,2.32,1.56,2.92,2.72.6,1.17.91,2.55.91,4.17,0,.9-.13,1.75-.4,2.56-.27.81-.68,1.46-1.24,1.95-.56.49-1.24.74-2.05.74-.67,0-1.13-.18-1.38-.54-.25-.36-.39-.82-.44-1.38-.04-.56-.07-1.18-.07-1.85,0-.58-.09-1.13-.27-1.65-.18-.51-.56-.93-1.14-1.24-.58-.31-1.48-.47-2.69-.47-2.47,0-4.73.63-6.79,1.88-2.06,1.26-3.83,2.94-5.31,5.04-1.48,2.11-2.62,4.48-3.43,7.13-.81,2.65-1.21,5.38-1.21,8.2,0,4.66,1.12,8.25,3.36,10.76,2.24,2.51,5.27,3.77,9.08,3.77,2.06,0,3.75-.24,5.08-.71,1.32-.47,2.4-1.05,3.23-1.75.83-.69,1.51-1.39,2.05-2.08.54-.69,1.04-1.27,1.51-1.71.47-.45,1.02-.67,1.65-.67.76,0,1.31.22,1.65.67.34.45.5,1.01.5,1.68,0,.9-.34,1.93-1.01,3.09-.67,1.17-1.67,2.3-2.99,3.4-1.32,1.1-2.97,2.01-4.94,2.72-1.97.72-4.26,1.08-6.86,1.08Z"/>
        <path d="m412.26,125.58c-.67,0-1.28-.11-1.82-.34-.54-.22-1.12-.71-1.75-1.45-.63-.74-1.37-1.83-2.22-3.26-1.43-2.38-2.62-4.87-3.56-7.5-.94-2.62-1.77-5.27-2.49-7.93-.72-2.67-1.36-5.21-1.92-7.63-.56-2.42-1.15-4.63-1.78-6.62-.63-1.99-1.34-3.62-2.15-4.87-.99-1.57-1.71-2.79-2.18-3.66s-.71-1.74-.71-2.59c0-.72.2-1.3.6-1.75.4-.45,1.01-.67,1.82-.67.99,0,1.88.36,2.69,1.08.81.72,1.7,1.95,2.69,3.7,1.08,1.88,1.99,3.98,2.76,6.29.76,2.31,1.45,4.74,2.05,7.3.61,2.55,1.25,5.13,1.95,7.73.7,2.6,1.5,5.13,2.42,7.6.92,2.47,2.07,4.77,3.46,6.93l-2.02,1.14c1.88-7.22,4.09-13.91,6.62-20.07,2.53-6.16,5.55-11.98,9.04-17.45.85-1.34,1.55-2.32,2.08-2.92.54-.6,1.01-1,1.41-1.18.4-.18.83-.27,1.28-.27.76,0,1.33.25,1.71.74.38.49.57,1.08.57,1.75,0,.63-.08,1.24-.24,1.85-.16.61-.38,1.21-.67,1.82-.29.6-.64,1.27-1.04,1.98-1.97,3.32-3.71,6.4-5.21,9.25-1.5,2.85-2.85,5.63-4.03,8.34-1.19,2.71-2.29,5.56-3.29,8.54-1.01,2.98-1.98,6.26-2.92,9.85-.45,1.75-.93,2.9-1.45,3.46-.52.56-1.09.84-1.71.84Z"/>
      </g>
    </g>
  </g>
</svg>