<?xml version="1.0" encoding="UTF-8"?>
<svg id="Laag_2" data-name="Laag 2" xmlns="http://www.w3.org/2000/svg" viewBox="0 0 35.04 35.62">
  <defs>
    <style>
      .cls-1 {
        fill: none;
        stroke: #000;
        stroke-miterlimit: 10;
      }
    </style>
  </defs>
  <g id="Laag_1-2" data-name="Laag 1">
    <path class="cls-1" d="m14.67,25.03c-1.62.8-13.07,2.08-13.96-.55-1.75-5.17,7.7.61,8.54,1.2-2.56-2.67-5.31-8.08.07-8.68,1.07,2.56.88,5.22.1,7.86.77-3.08,3.95-6.03,6.9-5.06-.41,3.72-4.18,4.58-6.65,6.96,1.45,1.86,2.26,4,2,6.3-3.72-.2-3.79-4.13-2.22-5.8-.13,4.08-3.3,7.9-7.52,6.52.98-2.42,3.35-4.19,5.2-5.85"/>
    <path class="cls-1" d="m21.62,12.28c-2.11-2.34-5.21-8.35-4.08-11.54,2.28,1.38,2.77,4.55,2.32,7.34.61-2.86,2.72-5.1,5.75-4.39-.78,2.56-3.04,3.4-4.95,5.57,7.34-1.12,1.07,6.84-1.41.32,1.28,2.46,0,4.91-2.26,6.22-3.06-1.82-1.36-5.14,1.11-6.3-7.84,1.28-5.08-8.79.62-1.29"/>
    <path class="cls-1" d="m26.84,27.35c-2.76,1.65-4.82,5.05-2.33,7.6,2.68-2.14,1.75-6.54,1.76-9.76-.41,4.75,4.76,8.12,8.16,4.47-1.54-2.67-6.11-2.18-8.54-1.1,2.55-1.59,3.72-5.03,3.19-8.08-.16.01-1.41.03-1.55,0-.89,2.94-1.59,6.6-2.28,9.14-.88-2.82-1.24-6.68-3.47-8.59-1.75,2.74-.02,5.44,2.52,6.95-1.88-1.48-3.66-1.25-5.07.49,1.42,2.35,4.25,2.48,5.3.03"/>
  </g>
</svg>