<?xml version="1.0" encoding="UTF-8"?>
<svg id="Laag_2" data-name="Laag 2" xmlns="http://www.w3.org/2000/svg" width='26' height='26' viewBox="0 0 187.35 168.4">
  <defs>
    <style>
      .cls-1 {
        fill: #fff;
        stroke: #212121;
        stroke-miterlimit: 10;
        stroke-width: 10px;
      }
    </style>
  </defs>
  <g id="Laag_1-2" data-name="Laag 1">
    <path class="cls-1" d="m143.44,159.75c11-5,9.46-21.96,16.51-31.09,7.15-9.27,11.7-20.34,14.47-31.65,2.61-10.64,3.71-21.57,4.47-32.48.68-9.85,4.59-20.52,3.16-30.3-1.44-9.84-20.39-9.43-22.65-.13-2.09,8.59-2.3,17.39-4.8,26.06-.42,1.44-1.37,3.56-3.25,3.26-1.18-.19-1.83-1.47-2.18-2.61-3.47-11.09-1.38-24.26-1.44-35.73-.04-8.91-4.2-15.65-13.63-16.67-10.8-1.16-12.53,5.2-12.53,14.58,0,6.2-.61,12.55-1.31,18.71-.44,3.91-1.05,11.97-5.97,13-4.94,1.04-2.28-23.14-2.41-26.25-.49-11.84-4.56-28.65-20.59-21.9-11.41,4.8-9.38,20.71-10.74,30.69-.48,3.51-1.34,14.22-4.4,16.21-3.1,2.02-3.05-10.95-3.11-12.09-.42-7.61-1.35-15.31-5.45-21.98-6.05-9.84-23.63-8.95-26,3.25-2.27,11.66.66,25.47.56,37.35-.03,4.31,2.68,22.48-.98,25.23-3.24,2.44-4.85-1.26-5.68-3.72-2.29-6.75,1.47-14.39-.24-21.07-2.44-9.55-14.75-8.59-21.34-4.53s-8.59,13.41-8.87,20.27c-1.42,34.79,33.4,69.6,59.4,83.6,28.86,2.17,58,7,79,0Z"/>
  </g>
</svg>