<?xml version="1.0" encoding="UTF-8"?>
<svg id="Laag_2" data-name="Laag 2" xmlns="http://www.w3.org/2000/svg" width='26' height='26' viewBox="0 0 207.73 193.68">
  <defs>
    <style>
      .cls-1 {
        fill: #fff;
        stroke: #212121;
        stroke-miterlimit: 10;
        stroke-width: 10px;
      }
    </style>
  </defs>
  <g id="Laag_1-2" data-name="Laag 1">
    <path class="cls-1" d="m124.84,7.78c-.3-.27-.61-.52-.94-.75-5.85-4.15-13.22-1.66-15.82,4.91-2.83,7.12-2.87,14.87-3.69,22.38-1.03,9.38-1.1,18.83-2.37,28.2-.48,3.51-1.34,14.22-4.4,16.22-3.1,2.02-3.05-10.95-3.11-12.09-.35-6.28-.7-12.56-.8-18.85-.17-11.54-2.34-23.09-6.81-33.75-2.37-5.65-8.81-11.22-14.94-6.88-3.97,2.81-6.14,8.05-7.54,12.53-2.2,7.07-2.21,14.64-2.2,21.97,0,14.52,1.51,29.23,1.39,43.6-.02,1.97-.04,25.63-1.01,25.73-3.85.43-8.98-5.15-11.57-7.48-6.41-5.79-12.84-11.74-20.34-16.1-7.4-4.31-21.42-10.96-25.21,1.43-3.13,10.24,9.85,21.27,16.41,28.2,10.79,11.38,16.9,26.28,27.38,37.93,9.19,10.22,23.62,23.07,37.01,29.63,1.68.82,3.7.54,5.56.66,14.02.88,28.02,1.93,42.03,3.01,10.02.78,19.02.78,28.75-2.42,9.21-3.03,9.61-8.54,12.33-16.86,5.41-16.53,16.7-29.46,20.92-46.67,2.61-10.64,3.71-21.57,4.47-32.48,1.17-16.84,4.58-33,.32-49.78-.76-3-1.76-7-7.51-7.93-6.92-1.11-9.14,6.43-10.22,11.35-1.63,7.44-2.09,15.21-2.71,22.69-.6,7.35-2.13,12.19-4.18,19.29-.42,1.44-1.36,3.57-3.25,3.26-1.18-.19-1.83-1.47-2.18-2.61-3.47-11.09-1.38-24.26-1.44-35.73-.06-12.08-.7-24.24-3.84-35.96-1.09-4.07-3.72-8.8-8.44-8.95-3.81-.12-7.33,2.58-9,5.78-3.28,6.29-3.12,13.82-3.81,20.7-1.17,11.66-1.06,23.39-2.38,35.05-.44,3.91-1.05,11.97-5.97,13-4.94,1.04-2.28-23.14-2.41-26.25-.33-7.87-.63-15.75-1.42-23.6-.68-6.77-1.47-17.36-7.08-22.35Z"/>
  </g>
</svg>