<?xml version="1.0" encoding="UTF-8"?>
<svg id="Laag_2" data-name="Laag 2" xmlns="http://www.w3.org/2000/svg" viewBox="0 0 79.09 81.08">
  <defs>
    <style>
      .cls-1 {
        fill: none;
      }
    </style>
  </defs>
  <g id="Laag_1-2" data-name="Laag 1">
    <g>
      <path d="m18.56,13.99c-1.38,2.51-.58,4.5-3.6,2.65-1.15-.7-2.59-1.31-2.57.68.02,1.31,1.6,2.01,1.62,3.3.06,3.41-3.66,1.72-5.19.85-1.13-.64-1.6-1.24-2.45.3-.8,1.45.07,1.51.67,2.79.78,1.67.19,5.55-2.49,5.2.08.74.51,1.39,1.28,1.51,1.15,2.71-3.36.82-4.24.92-3.59.41.47,1.38,1.05,1.75,1.46.92.86,2.5.57,3.85-.46,2.17-1.62,2.67-2.67,4.45-1.99,3.38,2.01,2.59,3.96,3.63.1.88-.16,1.72-.19,2.59-1.33.64-2.62,1.54-2.22,3.23.87.05,3.33-.18,3.55,1.02.21,1.12-1.48,1.13-1.68,1.85-.84,3.09,3.77.52,2.78,3.32-.5,1.43-2.06.9-.36,2.14.8.58,2.64-.06,3.04,1.37.28,1.02-1.16,1.44-.92,2.47.36,1.56,2.04.32,2.86-.23.98.72-.34,2.18-.59,3.21,1.96.84,1.53,3.4,3.6,3.63.28-1.78,1.57-1.5,3.08-1.5.1,1.64-.67,1.95-1.16,3.25-.18.47-.46,1.65-.02,2.07,1.38,1.3,1.3-3.22,3.12-3.25,2.69-.04,1.4,2.48,2,3.53.88,1.52,2.07-.21,3-.85.48.95.44,1.68.57,2.5s-.86.72.06,1.46c1.67,1.35,3.26-2.3,4.33-3,3.36.33.07,6.71,3.45,6.4.35-.69.74-1.53.9-2.3s-.15-1.98.06-2.6c.17-.49-.27-1.03.52-1.16,1.42-.23,1.65,3.45,2.46,4.1,2.29,1.84,1.62-1.74,2.66-2.91,1.37-1.53,4.74-.23,6.45.56-.09.86-.36,1.94-.05,2.68,2.31-1.07,1.2-3.35,2.54-4.74,1.03-1.07,2.13-.12,3.36-.07.49-2.23,1.7-3.89,3.71-4.89.78-.39,1.58-1.13,2.56-.99.79.11,1.25.9,2.06.95,1.21-1.73-.63-4.64.8-6.01,1.7-1.62,8.4,3.28,5.58-2.71-.6-1.28-2.67-3.18-.55-4.53,1.11-.71,2.06.05,2.89.57.32-1.6-.79-2.14-.09-3.65s1.5-1.15,1.03-2.97c1.53.04,3.11.95,4.54.21-.98-2.99-5.46-.35-6.7-3.02-.63-1.36-.19-4.4.81-5.44,1.92-2.02,7.22-1.58,9.95-2.36.03-.23,0-.51-.03-.74-2.08-.12-6.37.92-7.76-1.17-1.98-2.96,4.48-2.14,3.61-4.65-1.28-3.7-10.07,5.29-8.65.78.35-1.1,2.38-1.18,1.47-3.11-1.19-2.52-2,.36-3.48.14-.65-1.66-.48-2.32.52-3.71.69-.96,3.18-2.94,2.46-4.4-.59-1.2-2.83-1.12-4-1.01-1.71.17-2.14,1.26-3.66,1.54-.98-2.73.36-5.47-2.05-7.74-.52.65-1.04,1.32-1.41,2.06-1.15-1.05-1.42-3.07-1.67-4.57-.37-2.24.88-3.85.58-6.03-.93-.09-4.23-.41-4.82.54-.75,1.21.96,2.06,1.04,2.88.09.94.25,1.36-.78,2.1-.83-.61-.94-2.7-2.28-2.45-1.61.3-1.18,5.4-3.98,2.42-.98-1.05.09-2.4-.47-3.23-1.72-2.52-3.07.89-3.27,2.08-.94.23-3.38.72-4.11-.17-.66-.8.02-.81-.22-1.5-.2-.59.45-1.29-.62-1.57-1.76-.47-1.11,1.82-1.8,2.28-1.05.68-2.39-.13-3.34-.68-.63,1.19-1.27,3.19-2.63,1.06-.28-.45.11-1.23-.16-1.74-.33-.63-1.62-1.39-2.15-1.85-.57,1.54.99,4.47.2,5.75-.73,1.17-4.51.95-4.78-.61-.41.48-.66,1.21-1.47,1.51Z"/>
      <path class="cls-1" d="m77.81,14.46c-1.27.76-1.33,3.08.52,2.88,1.64-.18.37-3.31-1.31-1.83"/>
      <path d="m59.05.27c-2.62.65.47,4.25,1.78,1.77s-1.73-2.48-2.82-1.25"/>
      <path d="m58.06,6.81c-2.17,2.08,3.22,3.96,2.85.41-.07-.69-1.4-2.12-2.2-1.94-1.15.26-.99,2.19-1.17,3.09"/>
    </g>
  </g>
</svg>