<?xml version="1.0" encoding="UTF-8"?>
<svg id="Laag_2" data-name="Laag 2" xmlns="http://www.w3.org/2000/svg" viewBox="0 0 192.56 168.27">
  <defs>
    <style>
      .cls-1 {
        stroke-width: 9px;
      }

      .cls-1, .cls-2 {
        fill: #f7eac4;
        stroke: #212121;
        stroke-miterlimit: 10;
      }

      .cls-2 {
        stroke-linecap: round;
        stroke-width: 11px;
      }
    </style>
  </defs>
  <g id="Laag_1-2" data-name="Laag 1">
    <g>
      <path class="cls-1" d="m5.35,28.83c-1-7.47,6.57-21.12,13.74-23.53,5.98-2.01,12.62.28,18.53,1.42,7.06,1.37,14.2.96,21.34.94,2.36,0,8.01-.94,10,.43,3.07,2.11,3.63,7.69,6.82,10.42,3.71,3.17,8.93,5.27,13.78,3.76,7.3-2.27,13.86-6.24,21.34-8.16,8.69-2.23,17.66-2.75,26.59-2.16,16.06,1.06,31.92,4.23,47.95,5.72.4.04.83.08,1.15.33,3.47,2.62-.28,24.42-.54,28.74-.69,11.26-1.38,22.52-1.05,33.8.5,17.74,4,36.22,2.18,54.06-.73,7.14-.87,21.8-7.69,26.18-10.1,6.5-29.38,1.63-38.43-7.51-6.35-6.41-17.88-1.62-26.86-1.8-5.64-.11-6.9.93-6.66-4.71.04-.88,2.88-11.37,1.97-11.43-19.99-1.21-33.26,9.12-52.28,12.51-13.3,2.36-26.95,2.69-40.43,3.2-7.61.28-5.5-4.56-4.56-10.07.86-5.03,2.21-10.59.38-15.57-1.05-2.85-6.15-3.75-7.05-6.42-3.74-11.04,3.55-27.55,2.99-40.26-.73-16.77-1.07-33.99-3.21-49.89Z"/>
      <path class="cls-2" d="m31.62,122.9c3.84-5.46,5.15-7.82,10.49-10.98"/>
      <path class="cls-2" d="m57,103.52c5.75-3.02,7.82-3.22,14.11-4.1"/>
      <path class="cls-2" d="m88.45,102.6c5.1,2.2,7.74,2.87,12.66,4.83"/>
      <path class="cls-2" d="m117.11,114.42c4.07,2.16,12.44,4.02,17,2.48"/>
      <path class="cls-2" d="m152.58,112.67c4.52-2.25,7.52-9.25,8-14.15"/>
      <path class="cls-2" d="m163.2,83.91c.91-4.49-4.09-11.49-6.77-13.53"/>
      <path class="cls-2" d="m143.59,62.38c-5.52-4.78-9.48-4.95-16.48-5.95"/>
      <path class="cls-2" d="m101.11,73.42l-27-27"/>
      <path class="cls-2" d="m74.11,73.42c8-9,17-16,27-25"/>
    </g>
  </g>
</svg>