<?xml version="1.0" encoding="UTF-8"?>
<svg id="Laag_2" data-name="Laag 2" xmlns="http://www.w3.org/2000/svg" viewBox="0 0 50.16 65.5">
  <defs>
    <style>
      .cls-1 {
        fill: none;
        stroke: #000;
        stroke-miterlimit: 10;
      }
    </style>
  </defs>
  <g id="Laag_1-2" data-name="Laag 1">
    <g>
      <path class="cls-1" d="m18.14,55.69c-.51,1.51-.56,3.19-1.09,4.76-.6,1.78-.95,2.98.83,3.81,3.53,1.65,5.77.48,6.96-2.95,1.6-4.63,1.67-9.96,2.74-14.86,1.37-6.3,1.83-13.43,5.75-18.86,2.72-3.77,6.46-6.49,9.91-9.52,1.17-1.02,2.04-2.16,3.23-3.19.77-.68,2.35-1.96,2.81-2.94.56-1.22.63-4.32-.58-5.27-1.69-1.34-7.36-.53-9.12.23-1.37.59-2.61,1.48-4.1,1.83-1.77.41-2.52-.32-4.1-.55-1.89-.27-3.94.7-5.74,1.09-3.36.72-7.25.93-10.6,0-2.38-.67-3.52-2.75-5.48-4.14s-4.31-1.71-6.58-1.36C.57,4.14-.04,6.27.97,8.43c.91,1.94,2.68,3.11,4.12,4.54s2.56,3.39,3.66,5c3.14,4.57,3.77,10.57,5.43,15.78,1.57,4.9,2.3,9.92,3.21,14.93.51,2.82,1.45,5.89.42,8.56-.33.85-.93,1.62-.91,2.55"/>
      <path class="cls-1" d="m16.53,26.93c-.21-3.38-2.21-7.8-3.66-10.88-.69-1.46-1.42-4.21-2.59-5.19"/>
      <path class="cls-1" d="m19.75,28.72c1.6-3.19-.32-10.62-1.79-13.75"/>
      <path class="cls-1" d="m22.6,28.72c-.06-2.58.45-5.29.57-7.88.09-1.87-.14-5.19.5-6.76"/>
      <path class="cls-1" d="m25.64,29.79c-.14-4.02-.23-10.73,2.14-14.11"/>
      <path class="cls-1" d="m28.32,29.26c-.08-5.33,3.48-11.7,7.32-15.18"/>
      <path class="cls-1" d="m30.82,28.18c-.41-8.02,8.2-11.44,12.68-16.61"/>
      <path class="cls-1" d="m13.67,23.54c.11-4.21-2.84-6.73-4.64-10.18"/>
      <path class="cls-1" d="m.99,4.43c.37-2.14,3.67-3.24,5.58-3.61,3.49-.68,7.61.16,10.99.79,1.01.19,2.38.7,3.4.46.57-.13,1.21-.86,1.82-1.07,1.75-.63,4.25-.55,6.09-.36,3.81.4,6.19,2.22,9.96,1.48,3.32-.65,6.96-.06,8.43,3.21"/>
    </g>
  </g>
</svg>