<?xml version="1.0" encoding="UTF-8"?>
<svg id="Laag_2" data-name="Laag 2" xmlns="http://www.w3.org/2000/svg" viewBox="0 0 33.66 115.22">
  <defs>
    <style>
      .cls-1 {
        fill: none;
        stroke: #000;
        stroke-miterlimit: 10;
      }
    </style>
  </defs>
  <g id="Laag_1-2" data-name="Laag 1">
    <g>
      <path class="cls-1" d="m7.4,113.4c0-21.91-6.97-44.27-1.27-66.04,1.26-4.79,3.21-11.57,6.42-14.72.87,1.91-3.98,11.01-4.58,14.14-.98,5.21-3.71,10.98-2.9,16.65,2.37,16.56,6.69,33.09,5.67,50.46-1.36-.24-3.21-.73-3.35-.5Z"/>
      <path class="cls-1" d="m14.02,33.88c10.56,4.72,16.75-1.69,11.52-8.67C22.48,21.12,2.32,13.24.54,21.2c-.66,2.94,7.22,8.86,9,11"/>
      <path class="cls-1" d="m.82,20.06c-.09-1.25.24-2.4.94-3.37.86-1.2,1.77-1.53,3-2.39,1.75-1.22,3.23-2.67,4.79-4.1,1.68-1.54,3.41-2.76,5.27-4.07.97-.68,1.76-1.77,2.85-2.29,1.14-.54,2.34-1.01,3.49-1.58,2.32-1.14,4.54-1.54,7.13-1.58.96-.01,2.81-.43,3.69.05.71.39.97,1.56,1.09,2.27.41,2.32-.42,5.05-.99,7.3-.99,3.95-1.69,7.93-3.07,11.77-.88,2.44-1.48,5.44-1.39,8"/>
      <path class="cls-1" d="m10.62,34.76c.42-2.14,1.28-4.36,2.07-6.4.72-1.86,2.1-3.03,3.16-4.66-.24,3.12-1.97,6.02-2.29,9.11"/>
      <path class="cls-1" d="m16.72,25.07c.92,1.56,1.92,3.37,1.96,5.23.03,1.19-.32,2.29-.33,3.48"/>
      <path class="cls-1" d="m17.91,22.89c.22.64.82,1.17,1.17,1.79.69,1.18,1.29,2.44,1.74,3.73.69,2.02,1.98,4.16,1.88,6.35"/>
      <path class="cls-1" d="m20.85,25.29c2.16,2.25,4.09,4.73,5.44,7.4"/>
      <path class="cls-1" d="m12.8,24.85c-1.94,1.87-4.13,3.18-5.44,5.55"/>
      <path class="cls-1" d="m10.95,23.76c-1.7.5-3.15,1.16-4.74,1.96-.68.34-2.71.93-2.77,1.85"/>
      <path class="cls-1" d="m12.25,22.02h-6.88c-1.62,0-2.14.15-3.46.65"/>
      <path class="cls-1" d="m15.3,22.13c-1.13-1.19-3.3-3.13-5.01-3.16"/>
      <path class="cls-1" d="m17.26,22.24c.03-.3.11-.6.22-.87"/>
    </g>
  </g>
</svg>