<?xml version="1.0" encoding="UTF-8"?>
<svg id="Laag_2" data-name="Laag 2" xmlns="http://www.w3.org/2000/svg" viewBox="0 0 52.51 86.52">
  <defs>
    <style>
      .cls-1 {
        fill: none;
        stroke: #000;
        stroke-miterlimit: 10;
      }
    </style>
  </defs>
  <g id="Laag_1-2" data-name="Laag 1">
    <g>
      <path class="cls-1" d="m43.77,84.33c-1.75,2.13-6.24,1.7-8.8,1.56-1.48-6.72-4.38-12.99-6.96-19.34-2.69-6.62-3.49-13.54-4.26-20.6-1.02-9.38-4.25-19.12-1.69-28.63.69-2.55,1.81-2.81,4.72-2.54.23,4.52-.36,9.18-.15,13.78.26,5.86,1.43,12.25,2.83,17.9,2.6,10.45,7.11,19.97,11.08,29.92.93,2.34,2.91,4.48,3.22,7.94Z"/>
      <path class="cls-1" d="m20.64,32.06c-4.4,3.05-23.11-4.84-19.28-9.82.6-.78,1.54-1.21,2.43-1.64,5.85-2.77,10.6-6.45,17.06-7.83,9.8-2.09,21.99-1.12,29.99,5.5,3.37,2.79-1.39,6.82-3.64,8.42-5.91,4.18-13.06,4.54-20.03,5.19"/>
      <path class="cls-1" d="m.51,22.35c-.23-2.5,3.28-5.62,4.98-7.46,3.17-3.43,5.84-6.96,10.2-9.05,3.97-1.91,7.88-4.48,12.18-5.21,5.03-.86,7.93,2.82,11.35,5.92,2.73,2.47,5.88,4.38,8.26,7.12,1.42,1.64,2.14,3.43,3.35,5.15"/>
      <path class="cls-1" d="m35.71,31.4c-.53-2.16-.68-4.05-1.73-6.13-1.46-2.89-3.62-5.36-5.75-7.76,2.57,1.81,6.43,2.87,9.12,4.51,1.67,1.02,2.99,2.13,4.36,3.51.76.77,3.08,2.2,3.08,3.06"/>
      <path class="cls-1" d="m47.6,19.78c-1.2-1.04-3.68-1.5-5.19-1.9-4.67-1.23-9.05-1.01-13.77-1.18,4.05-.36,7.72-3.59,11.88-3.47"/>
      <path class="cls-1" d="m27.7,15.24c.56-.49,1.36-1.06,1.74-1.74"/>
      <path class="cls-1" d="m25.56,14.17c-.11-.25-.2-.51-.27-.8"/>
      <path class="cls-1" d="m22.63,14.71c-.51-.05-.91-.35-1.2-.8"/>
      <path class="cls-1" d="m20.62,16.57c-2.06-.46-4.03-1.43-6.01-2.14"/>
      <path class="cls-1" d="m19.56,18.84c-4.62-.22-9.08.97-13.62,1.47"/>
      <path class="cls-1" d="m5.8,24.99c.54-1.19,1.19-1.67,2.5-2.1,2.71-.89,6.8-2.26,9.66-2.04-2.18,1.55-3.63,5.24-4.14,7.88"/>
      <path class="cls-1" d="m20.49,21.78c-1.37,1.82-2.48,2.9-3.07,5.19-.44,1.71-.82,3.59-.93,5.36"/>
      <path class="cls-1" d="m19.96,30.06v1.87"/>
      <path class="cls-1" d="m29.7,30.46c.13-2.58-1.36-4.9-2.27-7.21"/>
    </g>
  </g>
</svg>