<?xml version="1.0" encoding="UTF-8"?>
<svg id="Laag_2" data-name="Laag 2" xmlns="http://www.w3.org/2000/svg" viewBox="0 0 21.28 23.49">
  <defs>
    <style>
      .cls-1 {
        fill: none;
        stroke: #000;
        stroke-miterlimit: 10;
      }
    </style>
  </defs>
  <g id="Laag_1-2" data-name="Laag 1">
    <g>
      <path class="cls-1" d="m9.06,14.35c-.76.5-3.63,1.06-4.27.15-.78-1.1,1.18-2.3,1.85-2.83,1.99-1.58,3.99-2.84,6.54-3.36,1.41-.29,3.09-1.12,4.55-.99.77.07.82-.03.71.81-.15,1.05-1.76,2.46-2.62,3.1"/>
      <path class="cls-1" d="m9.16,11.23c.8,2.4.14,5.07.51,7.54.14.92.44,2.03.75,2.91.47,1.33,1.01,1.3,2.44,1.3,1.69,0,4.31-.5,4.97-2.29.77-2.08-.92-4.02-1.69-5.85-.81-1.93-2.47-3.58-3.85-5.07"/>
      <path class="cls-1" d="m17.07,13.73c.62-.68,1.57-1.03,2.12-1.76.45-.59.85-1.5,1.18-2.19.43-.91.57-2.38.16-3.33-.95-2.23-3.48-2.17-5.33-2.91-.88-.35-1.64-.99-2.49-1.35s-1.78-.38-2.67-.62c-1.1-.31-2.54-1.15-3.68-1.05-1.3.12-2.74,2.42-3.12,3.53-.53,1.52-.81,3.12-1.36,4.65-.4,1.13-.99,2.23-1.25,3.4-.23,1.05-.15,2.32.27,3.3.48,1.15,1.7,1.87,2.97,1.87,1,0,3.84-.32,4.37-1.14"/>
    </g>
  </g>
</svg>