<?xml version="1.0" encoding="UTF-8"?>
<svg id="Laag_2" data-name="Laag 2" xmlns="http://www.w3.org/2000/svg" viewBox="0 0 609.5 211">
  <defs>
    <style>
      .cls-1 {
        fill: none;
      }

      .cls-2 {
        fill: #f7eac4;
        stroke: #212121;
        stroke-miterlimit: 10;
        stroke-width: 7px;
      }
    </style>
  </defs>
  <g id="Laag_1-2" data-name="Laag 1">
    <g>
      <rect class="cls-1" width="606" height="211"/>
      <g>
        <path class="cls-2" d="m597.22,42.14c-.31-.42-.63-.81-.99-1.18-7.14-7.49-18.79-1.71-27.28-1.24-19.01,1.04-38.22.46-57.26.77-38.22.63-76.44,1.36-114.66,1.36-17.51,0-33.89,1.12-50.17-3.41-17.75-4.94-26.58-18.91-45.92-11.04-17.45,7.1-30.24,10.45-49.38,10.45-19.61,0-40.21-.86-59.7,1.57-14.95,1.87-30.71.8-45.6,3.86-27.92,5.74-50.34,27.2-74.62,41.98-16.59,10.1-43.77,27.69-15.12,45.57,24.55,15.32,53.64,20.36,79.4,32.63,16.18,7.71,33.35,11.38,50.93,11.51,23.82.17,47.4-4.5,71.51-3.8,27.24.8,54.44,3.02,81.7,3.02,23.72,0,50.52-5.99,73.6-2.11,24.09,4.05,43.24,17.39,68.54,12.96,17.74-3.1,32.94-9.22,51.66-9.26,13.92-.03,44.07,10.33,56.24,3.66,27.13-14.87,11.73-71.64,9.85-93.11-1-11.45,4.6-34.25-2.74-44.22Z"/>
        <g>
          <path d="m183.74,83.56c-1.07,0-1.89-.25-2.47-.76-.58-.51-.87-1.18-.87-2.01,0-.65.25-1.26.77-1.84.51-.58,1.36-.96,2.57-1.15,2.22-.37,4.81-.69,7.78-.97,2.96-.28,6.05-.5,9.27-.66,3.22-.16,6.33-.24,9.34-.24,1.53,0,2.59.16,3.19.49.6.33.9.93.9,1.81,0,1.2-.65,2.15-1.94,2.85-1.3.69-3.08,1.04-5.35,1.04-3.01,0-5.59.05-7.74.14s-3.97.21-5.45.35c-1.48.14-2.78.29-3.89.45-1.11.16-2.14.29-3.09.38-.95.09-1.96.14-3.02.14Zm1.18,42.16c-1.57,0-2.72-.29-3.44-.87-.72-.58-1.08-1.33-1.08-2.26,0-.65.2-1.2.59-1.67.39-.46,1.03-.74,1.91-.83,1.71-.18,3.4-.34,5.07-.45,1.67-.12,3.36-.22,5.07-.31,1.71-.09,3.47-.16,5.28-.21s3.67-.08,5.59-.1c1.92-.02,3.92-.03,6.01-.03,1.16,0,2.04.12,2.64.35.6.23,1.03.52,1.29.87.25.35.38.78.38,1.29,0,.93-.45,1.74-1.35,2.43-.9.69-2.4,1.04-4.48,1.04-3.57,0-6.89.06-9.97.17-3.08.12-5.76.24-8.06.38-2.29.14-4.11.21-5.45.21Zm12.92-4.65c-1.16,0-2.11-.49-2.85-1.46-.74-.97-1.11-2.27-1.11-3.89,0-4.03.1-7.96.31-11.81.21-3.84.41-7.52.59-11.04.18-3.52.28-6.71.28-9.59,0-1.11.17-1.96.52-2.54.35-.58.94-.87,1.77-.87,1.06,0,1.98.5,2.74,1.49.76,1,1.14,2.21,1.14,3.65,0,2.08-.09,4.79-.28,8.13-.19,3.33-.38,7.14-.59,11.43-.21,4.28-.31,8.93-.31,13.93,0,1.71-.74,2.57-2.22,2.57Z"/>
          <path d="m251.54,125.58c-1.39,0-2.62-.64-3.68-1.91s-1.89-3.36-2.47-6.25c-.58-2.89-.87-6.68-.87-11.36,0-2.22-.05-4.01-.14-5.35-.09-1.34-.24-2.41-.45-3.19-.21-.79-.5-1.41-.87-1.88-.37-.46-.83-.95-1.39-1.46.93-.05,1.72.06,2.4.31.67.26,1.17.72,1.49,1.39.33.67.51,1.56.56,2.67-.65-.97-1.19-1.62-1.63-1.94-.44-.32-.98-.49-1.63-.49-.93,0-1.99.59-3.19,1.77-1.21,1.18-2.45,2.84-3.75,4.97-1.3,2.13-2.55,4.67-3.75,7.61-1.2,2.94-2.27,6.17-3.19,9.69-.46,2.04-1,3.45-1.6,4.24-.6.79-1.41,1.18-2.43,1.18-1.71,0-3.01-1.04-3.89-3.13-.88-2.08-1.32-4.75-1.32-7.99,0-2.36.1-4.42.31-6.18.21-1.76.44-3.4.69-4.93.25-1.53.48-3.1.69-4.72.21-1.62.31-3.47.31-5.56,0-.88.21-1.56.62-2.05.42-.49,1.04-.73,1.88-.73,1.06,0,1.89.38,2.47,1.15.58.76.87,2.03.87,3.78,0,1.53-.13,3.01-.38,4.45s-.52,2.99-.8,4.65c-.28,1.67-.51,3.6-.69,5.8-.19,2.2-.21,4.78-.07,7.75l-1.25-.35c1.57-5.97,3.39-11,5.45-15.07,2.06-4.07,4.24-7.15,6.53-9.24s4.55-3.13,6.77-3.13c1.62,0,2.97.44,4.06,1.32,1.09.88,1.91,2.12,2.47,3.72.56,1.6.83,3.48.83,5.66,0,3.61.02,6.72.07,9.31.05,2.59.28,4.72.69,6.39.42,1.67,1.13,2.94,2.15,3.82.46.37.79.78.97,1.22.19.44.28.96.28,1.56s-.24,1.17-.73,1.7c-.48.53-1.28.8-2.4.8Z"/>
          <path d="m276.06,125.86c-3.57,0-6.41-.86-8.54-2.57-2.13-1.71-3.67-4.12-4.62-7.22-.95-3.1-1.43-6.71-1.43-10.84,0-2.5.13-4.75.38-6.74.25-1.99.54-3.89.87-5.7.32-1.81.58-3.61.77-5.42.23-2.18.38-3.95.45-5.31.07-1.37.15-2.63.24-3.79.09-.65.33-1.23.69-1.74.37-.51,1-.76,1.88-.76,1.48,0,2.45.87,2.92,2.61.46,1.74.51,4.37.14,7.88-.23,1.85-.48,3.5-.73,4.93s-.49,2.84-.69,4.2c-.21,1.37-.39,2.8-.56,4.31-.16,1.51-.24,3.25-.24,5.24,0,3.71.32,6.65.97,8.82.65,2.18,1.62,3.73,2.92,4.65,1.3.93,2.89,1.39,4.79,1.39,1.16,0,2.04-.12,2.64-.35.6-.23,1.11-.45,1.53-.66.42-.21.93-.31,1.53-.31.65,0,1.16.21,1.53.63.37.42.56.97.56,1.67,0,1.3-.67,2.47-2.01,3.51-1.34,1.04-3.33,1.56-5.97,1.56Zm-8.4-26.95c-1.21.56-2.14.6-2.81.14-.67-.46-1.01-1.13-1.01-2.02,0-.97.24-1.83.73-2.57.49-.74,1.68-1.46,3.58-2.15,1.11-.42,2.33-.79,3.65-1.11,1.32-.32,2.65-.58,3.99-.76,1.34-.18,2.61-.28,3.82-.28.93,0,1.68.13,2.26.38.58.25,1.03.61,1.35,1.08.32.46.48,1.04.48,1.74,0,.79-.23,1.37-.69,1.74-.46.37-1.16.6-2.08.69-1.95.14-3.67.35-5.17.62-1.51.28-2.89.63-4.17,1.04-1.27.42-2.58.9-3.92,1.46Z"/>
          <path d="m303.84,125.65c-2.64,0-4.9-.37-6.77-1.11-1.87-.74-3.43-1.81-4.65-3.19-1.23-1.39-2.13-3.01-2.71-4.86-.58-1.85-.87-3.89-.87-6.11,0-2.36.43-4.73,1.29-7.12.86-2.38,2.09-4.56,3.72-6.53,1.62-1.97,3.57-3.55,5.83-4.76,2.27-1.2,4.82-1.81,7.64-1.81,2.18,0,4.07.39,5.7,1.18,1.62.79,2.88,1.96,3.79,3.51.9,1.55,1.35,3.51,1.35,5.87,0,1.9-.44,3.57-1.32,5-.88,1.44-2.1,2.65-3.65,3.65-1.55,1-3.37,1.76-5.45,2.29-2.08.53-4.33.8-6.74.8-2.78,0-4.72-.38-5.84-1.15-1.11-.76-1.67-1.61-1.67-2.54,0-.56.14-.96.42-1.22.28-.25.74-.38,1.39-.38.51,0,1.15.08,1.91.24.76.16,1.86.24,3.3.24,2.32,0,4.34-.29,6.08-.87,1.74-.58,3.11-1.4,4.13-2.47,1.02-1.06,1.53-2.29,1.53-3.68,0-1.57-.39-2.75-1.18-3.54-.79-.79-2.08-1.18-3.89-1.18s-3.46.42-4.97,1.25c-1.51.83-2.8,1.97-3.89,3.4-1.09,1.44-1.93,3.07-2.53,4.9-.6,1.83-.9,3.74-.9,5.73,0,1.67.28,3.16.83,4.48.56,1.32,1.46,2.39,2.71,3.2,1.25.81,2.94,1.22,5.07,1.22,2.5,0,4.6-.3,6.29-.9,1.69-.6,3.09-1.28,4.2-2.05,1.11-.76,2.05-1.44,2.82-2.02.76-.58,1.47-.87,2.12-.87s1.09.19,1.32.56c.23.37.35.97.35,1.81,0,.93-.45,1.91-1.35,2.95-.9,1.04-2.14,2.03-3.72,2.95-1.58.93-3.36,1.68-5.35,2.26s-4.1.87-6.32.87Z"/>
          <path d="m333.71,125.79c-.69,0-1.3-.21-1.81-.63-.51-.42-.9-1.02-1.18-1.81-.28-.79-.42-1.67-.42-2.64,0-3.01-.05-5.97-.14-8.89-.09-2.92-.27-5.6-.52-8.06s-.61-4.47-1.08-6.04c-.28-1.06-.48-1.9-.59-2.5-.12-.6-.17-1.2-.17-1.81,0-.83.22-1.52.66-2.05.44-.53,1.12-.8,2.05-.8.83,0,1.58.38,2.26,1.15.67.76,1.24,2.08,1.7,3.96.46,1.88.79,4.48.97,7.82.18,3.33.23,7.55.14,12.64l-2.22-2.01c.32-4.49,1.05-8.28,2.19-11.36,1.13-3.08,2.5-5.55,4.1-7.4,1.6-1.85,3.3-3.19,5.1-4.03,1.81-.83,3.59-1.25,5.35-1.25,1.16,0,1.95.28,2.4.83.44.56.66,1.23.66,2.01,0,.65-.21,1.26-.63,1.84-.42.58-1.14,1.01-2.15,1.29-2.41.56-4.4,1.54-5.97,2.95-1.57,1.41-2.86,3.17-3.85,5.28-1,2.11-1.76,4.5-2.29,7.19-.53,2.69-.91,5.6-1.15,8.75-.09,1.48-.27,2.63-.52,3.44-.26.81-.62,1.36-1.08,1.67-.46.3-1.06.45-1.81.45Z"/>
          <path d="m390.11,125.58c-1.39,0-2.62-.64-3.68-1.91s-1.89-3.36-2.47-6.25c-.58-2.89-.87-6.68-.87-11.36,0-2.22-.05-4.01-.14-5.35-.09-1.34-.24-2.41-.45-3.19-.21-.79-.5-1.41-.87-1.88-.37-.46-.83-.95-1.39-1.46.93-.05,1.72.06,2.4.31.67.26,1.17.72,1.49,1.39.33.67.51,1.56.56,2.67-.65-.97-1.19-1.62-1.63-1.94-.44-.32-.98-.49-1.63-.49-.93,0-1.99.59-3.19,1.77-1.21,1.18-2.45,2.84-3.75,4.97-1.3,2.13-2.55,4.67-3.75,7.61-1.2,2.94-2.27,6.17-3.19,9.69-.46,2.04-1,3.45-1.6,4.24-.6.79-1.41,1.18-2.43,1.18-1.71,0-3.01-1.04-3.89-3.13-.88-2.08-1.32-4.75-1.32-7.99,0-2.36.1-4.42.31-6.18.21-1.76.44-3.4.69-4.93.25-1.53.48-3.1.69-4.72.21-1.62.31-3.47.31-5.56,0-.88.21-1.56.62-2.05.42-.49,1.04-.73,1.88-.73,1.06,0,1.89.38,2.47,1.15.58.76.87,2.03.87,3.78,0,1.53-.13,3.01-.38,4.45s-.52,2.99-.8,4.65c-.28,1.67-.51,3.6-.69,5.8-.19,2.2-.21,4.78-.07,7.75l-1.25-.35c1.57-5.97,3.39-11,5.45-15.07,2.06-4.07,4.24-7.15,6.53-9.24s4.55-3.13,6.77-3.13c1.62,0,2.97.44,4.06,1.32,1.09.88,1.91,2.12,2.47,3.72.56,1.6.83,3.48.83,5.66,0,3.61.02,6.72.07,9.31.05,2.59.28,4.72.69,6.39.42,1.67,1.13,2.94,2.15,3.82.46.37.79.78.97,1.22.19.44.28.96.28,1.56s-.24,1.17-.73,1.7c-.48.53-1.28.8-2.4.8Z"/>
          <path d="m407.83,125.65c-2.04,0-3.75-.26-5.14-.76-1.39-.51-2.42-1.16-3.09-1.94-.67-.79-1.01-1.6-1.01-2.43,0-.69.21-1.27.62-1.74.42-.46,1.02-.69,1.81-.69.46,0,.85.09,1.15.28.3.19.65.39,1.04.63.39.23.94.43,1.63.59.69.16,1.64.24,2.85.24,2.96,0,5.57-.36,7.82-1.08,2.24-.72,3.78-1.96,4.62-3.72-.33-1.02-1.03-1.83-2.12-2.43-1.09-.6-2.4-1.12-3.92-1.56-1.53-.44-3.11-.9-4.76-1.39-1.64-.49-3.16-1.05-4.55-1.7s-2.54-1.53-3.44-2.64c-.9-1.11-1.35-2.52-1.35-4.24,0-1.62.51-3.11,1.53-4.48,1.02-1.36,2.37-2.55,4.06-3.54,1.69-1,3.55-1.75,5.59-2.26,2.04-.51,4.1-.76,6.18-.76,1.25,0,2.29.21,3.13.63s1.47.92,1.91,1.49c.44.58.66,1.17.66,1.77,0,.69-.2,1.25-.59,1.67-.39.42-.98.63-1.77.63-.28,0-.56-.02-.83-.07-.28-.05-.61-.08-1.01-.1-.39-.02-.87-.03-1.42-.03-2.78,0-5.2.43-7.26,1.28-2.06.86-3.6,2.14-4.62,3.86.23.93.89,1.69,1.98,2.29,1.09.6,2.41,1.11,3.96,1.53,1.55.42,3.16.87,4.83,1.35,1.67.49,3.23,1.07,4.69,1.74,1.46.67,2.65,1.56,3.58,2.67.93,1.11,1.39,2.52,1.39,4.24,0,1.85-.49,3.45-1.46,4.79-.97,1.34-2.3,2.46-3.99,3.33-1.69.88-3.62,1.53-5.8,1.95-2.18.42-4.47.63-6.88.63Z"/>
          <path d="m437.77,125.58c-.79,0-1.49-.28-2.12-.83-.62-.56-1.12-1.41-1.49-2.57-.37-1.16-.56-2.62-.56-4.38,0-4.86.28-9.22.83-13.06s1.17-7.35,1.84-10.52c.67-3.17,1.15-6.08,1.42-8.72.14-1.39.2-2.68.17-3.89-.02-1.2-.05-2.35-.07-3.44-.02-1.09.01-2.09.1-3.02.09-.79.35-1.48.77-2.08.42-.6,1.09-.9,2.01-.9,1.02,0,1.81.39,2.36,1.18.56.79.94,2.05,1.15,3.78.21,1.74.15,4.09-.17,7.05-.33,2.92-.82,6.07-1.49,9.45-.67,3.38-1.27,6.96-1.81,10.73-.53,3.78-.75,7.68-.66,11.71l-1.53-1.18c2.32-6.11,4.46-10.98,6.43-14.59,1.97-3.61,3.88-6.22,5.73-7.81,1.85-1.6,3.71-2.4,5.56-2.4,2.04,0,3.59.65,4.65,1.94,1.06,1.3,1.88,3.16,2.43,5.59s.97,5.34,1.25,8.72c.32,2.96.64,5.34.94,7.12.3,1.78.64,3.19,1.01,4.24.37,1.04.77,1.96,1.18,2.74.23.37.42.76.56,1.18.14.42.21.86.21,1.32,0,.79-.27,1.44-.8,1.94s-1.22.76-2.05.76c-1.16,0-2.2-.66-3.13-1.98-.93-1.32-1.69-3.08-2.29-5.28-.6-2.2-1.02-4.57-1.25-7.12-.23-2.92-.49-5.3-.77-7.15-.28-1.85-.59-3.37-.94-4.55s-.8-2.21-1.35-3.09c-.97.09-2.28,1.2-3.92,3.33-1.64,2.13-3.4,5.14-5.28,9.03-1.87,3.89-3.67,8.54-5.38,13.96-.37,1.11-.85,1.85-1.42,2.22-.58.37-1.29.56-2.12.56Z"/>
          <path d="m481.6,84.32c-1.71,0-3.15-.51-4.31-1.53-1.16-1.02-1.74-2.25-1.74-3.68,0-1.25.45-2.28,1.35-3.09.9-.81,2.05-1.22,3.44-1.22,1.16,0,2.16.28,3.02.83s1.49,1.26,1.91,2.12c.42.86.63,1.75.63,2.67s-.34,1.75-1.01,2.61c-.67.86-1.77,1.28-3.3,1.28Zm-.62,41.4c-.79,0-1.44-.18-1.95-.56-.51-.37-.89-.95-1.15-1.74-.25-.79-.38-1.71-.38-2.78v-9.24c0-2.55-.01-4.76-.03-6.63-.02-1.88-.04-3.62-.04-5.24v-5.14c0-.83.12-1.55.35-2.15.23-.6.6-1.09,1.11-1.46.51-.37,1.16-.56,1.95-.56,1.02,0,1.86.35,2.53,1.04.67.69,1.03,1.76,1.08,3.19,0,1.02-.02,2.47-.07,4.34s-.1,3.95-.17,6.22c-.07,2.27-.13,4.55-.17,6.84-.05,2.29-.09,4.39-.14,6.29-.05,1.9-.07,3.4-.07,4.52,0,.88-.23,1.61-.69,2.19s-1.18.87-2.15.87Z"/>
          <path d="m499.1,143.09c-.56,0-1.07-.1-1.53-.31s-.81-.55-1.04-1.01c-.23-.46-.35-1.04-.35-1.74s.1-1.34.31-1.95c.21-.6.45-1.32.73-2.15.28-.83.52-1.9.73-3.19.21-1.3.31-2.96.31-5,0-2.55-.2-5.08-.59-7.61s-.83-5.07-1.32-7.64c-.49-2.57-.93-5.16-1.32-7.78-.39-2.62-.62-5.27-.66-7.95,0-.79.09-1.43.28-1.94.19-.51.48-.89.87-1.15.39-.25.87-.38,1.42-.38.74,0,1.4.24,1.98.73s1.04,1.14,1.39,1.94c.35.81.52,1.7.52,2.67,0,2.78.19,5.41.56,7.88.37,2.48.81,4.9,1.32,7.26.51,2.36.95,4.72,1.32,7.09.37,2.36.56,4.79.56,7.29,0,2.27-.12,4.33-.35,6.18-.23,1.85-.57,3.43-1.01,4.72-.44,1.3-1.01,2.29-1.7,2.99s-1.51,1.04-2.43,1.04Zm12.64-17.43c-2.27,0-4.28-.33-6.04-.97-1.76-.65-3.16-1.47-4.2-2.47-1.04-1-1.56-2.07-1.56-3.23,0-.56.14-1.04.42-1.46.28-.42.74-.63,1.39-.63.46,0,.9.14,1.32.42.42.28.93.59,1.53.94s1.4.66,2.4.94,2.35.42,4.06.42c2.59,0,4.7-.66,6.32-1.98,1.62-1.32,2.43-3.58,2.43-6.77,0-2.22-.39-4.23-1.18-6.01-.79-1.78-1.89-3.32-3.3-4.62-1.41-1.3-3.02-2.29-4.83-2.99-1.81-.69-3.75-1.04-5.83-1.04-1.07,0-2.11.12-3.13.35-1.02.23-1.9.35-2.64.35-.56,0-1.05-.13-1.49-.38s-.78-.61-1.01-1.08c-.23-.46-.35-.93-.35-1.39,0-1.25.65-2.21,1.95-2.88,1.3-.67,3.43-1.01,6.39-1.01s5.89.49,8.51,1.46c2.61.97,4.91,2.4,6.88,4.27,1.97,1.87,3.51,4.13,4.62,6.77,1.11,2.64,1.67,5.6,1.67,8.89,0,2.13-.35,4.06-1.04,5.8s-1.68,3.23-2.95,4.48c-1.27,1.25-2.79,2.2-4.55,2.85-1.76.65-3.68.97-5.77.97Z"/>
        </g>
      </g>
    </g>
  </g>
</svg>