<?xml version="1.0" encoding="UTF-8"?>
<svg id="Laag_2" data-name="Laag 2" xmlns="http://www.w3.org/2000/svg" viewBox="0 0 609.5 211">
  <defs>
    <style>
      .cls-1 {
        fill: none;
      }

      .cls-2 {
        fill: #f7eac4;
        stroke: #212121;
        stroke-miterlimit: 10;
        stroke-width: 7px;
      }
    </style>
  </defs>
  <g id="Laag_1-2" data-name="Laag 1">
    <g>
      <g>
        <path class="cls-2" d="m604.01,129.65c1.78-25.19,6.72-65.35-11.13-86.72-13.56-16.24-38.28-11.47-56.19-10.57-58.79,2.96-120.1-.96-178.25,1.68-18.63.85-37.28.98-55.93.7-16.72-.25-36.31-8.44-51.14,2.49-19.39,14.29-36.57,31.97-58.06,43.19-7.57,3.95-27.36,12.94-27.36,23.33,0,31.47,46.6,51.27,69.43,63.81,42.05,23.11,85.16,2.86,129.85,4.17,31.1.91,62.27,2.65,93.4,2.49,2.44-.01,5.11-.11,6.96-1.7,1.53-1.32,2.16-3.37,2.71-5.31,1.94-6.8,8.24-12.62,11.59-6.39,10.06,18.71,33.52,15.8,51.26,16.69,8.18.41,16.33,1.46,24.5,1.94,13.07.77,35.03,2.56,43.13-10.6,4.86-7.89,4.54-29.49,5.23-39.2Z"/>
        <g>
          <path d="m274.21,122.39c-.93,0-1.72-.42-2.36-1.25-.65-.83-.97-2.15-.97-3.96,0-3.01-.21-5.74-.62-8.2-.42-2.45-.89-4.77-1.43-6.95-.53-2.18-1.02-4.29-1.46-6.36-.44-2.06-.66-4.18-.66-6.36,0-3.33.58-6.26,1.74-8.79,1.16-2.52,2.96-4.49,5.42-5.9,2.45-1.41,5.63-2.12,9.52-2.12,2.27,0,4.39.35,6.36,1.04,1.97.69,3.71,1.73,5.21,3.09,1.5,1.37,2.68,3.03,3.54,5,.86,1.97,1.29,4.2,1.29,6.7,0,2.22-.49,4.38-1.46,6.46-.97,2.08-2.32,3.94-4.03,5.56-1.72,1.62-3.74,2.91-6.08,3.86-2.34.95-4.9,1.42-7.68,1.42-1.72,0-3.24-.23-4.59-.69-1.34-.46-2.41-1.09-3.19-1.88-.79-.79-1.18-1.6-1.18-2.43,0-.69.2-1.23.59-1.6.39-.37.84-.56,1.35-.56.65,0,1.23.1,1.74.31s1.15.42,1.91.63c.77.21,1.79.31,3.09.31,2.64,0,4.96-.53,6.95-1.6,1.99-1.06,3.55-2.48,4.69-4.24,1.13-1.76,1.7-3.61,1.7-5.56,0-2.22-.48-4.05-1.43-5.49s-2.21-2.51-3.78-3.23c-1.58-.72-3.24-1.08-5-1.08-3.52,0-6.15.93-7.88,2.78-1.74,1.85-2.61,4.52-2.61,7.99,0,2.08.21,4.16.63,6.22.42,2.06.9,4.23,1.46,6.49.56,2.27,1.04,4.78,1.46,7.54.42,2.76.62,5.89.62,9.41,0,1.02-.22,1.84-.66,2.47s-1.17.94-2.19.94Z"/>
          <path d="m312.34,122.53c-.69,0-1.3-.21-1.81-.63-.51-.42-.9-1.02-1.18-1.81-.28-.79-.42-1.67-.42-2.64,0-3.01-.05-5.97-.14-8.89-.09-2.92-.27-5.6-.52-8.06-.25-2.45-.61-4.47-1.08-6.04-.28-1.06-.48-1.9-.59-2.5-.12-.6-.17-1.2-.17-1.81,0-.83.22-1.52.66-2.05.44-.53,1.12-.8,2.05-.8.83,0,1.58.38,2.26,1.15.67.76,1.24,2.08,1.7,3.96.46,1.88.79,4.48.97,7.82.18,3.33.23,7.55.14,12.64l-2.22-2.01c.32-4.49,1.05-8.28,2.19-11.36,1.13-3.08,2.5-5.55,4.1-7.4,1.6-1.85,3.3-3.19,5.1-4.03,1.81-.83,3.59-1.25,5.35-1.25,1.16,0,1.95.28,2.4.83.44.56.66,1.23.66,2.01,0,.65-.21,1.26-.63,1.84-.42.58-1.14,1.01-2.15,1.29-2.41.56-4.4,1.54-5.97,2.95-1.57,1.41-2.86,3.17-3.85,5.28-1,2.11-1.76,4.5-2.29,7.19-.53,2.69-.91,5.6-1.15,8.75-.09,1.48-.27,2.63-.52,3.44-.26.81-.62,1.36-1.08,1.67-.46.3-1.06.45-1.81.45Z"/>
          <path d="m352.77,122.53c-3.52,0-6.66-.75-9.41-2.26-2.76-1.5-4.91-3.59-6.46-6.25-1.55-2.66-2.33-5.71-2.33-9.13,0-2.59.48-4.94,1.43-7.05.95-2.11,2.14-3.92,3.58-5.45,1.43-1.53,2.88-2.7,4.34-3.51,1.46-.81,2.7-1.22,3.72-1.22.51,0,.94.07,1.28.21.35.14.64.36.87.66.23.3.35.71.35,1.22,0,.93-.2,1.76-.59,2.5-.39.74-1.19,1.44-2.4,2.08-1.48.88-2.69,1.84-3.61,2.88-.93,1.04-1.62,2.18-2.08,3.4-.46,1.23-.69,2.56-.69,3.99,0,3.75,1.06,6.75,3.19,9s5,3.37,8.61,3.37c3.06,0,5.51-1.17,7.36-3.51,1.85-2.34,2.78-5.45,2.78-9.34,0-3.57-.8-6.36-2.4-8.37s-3.78-3.02-6.56-3.02c-1.48,0-2.66.28-3.54.83-.88.56-1.78,1.3-2.71,2.22-.74.69-1.29,1.32-1.63,1.87s-.71.98-1.08,1.29c-.37.3-.86.45-1.46.45-.65,0-1.17-.2-1.56-.59-.39-.39-.59-1.08-.59-2.05,0-1.06.33-2.16,1.01-3.3.67-1.13,1.57-2.18,2.71-3.13,1.13-.95,2.4-1.72,3.78-2.33,1.39-.6,2.85-.9,4.38-.9,3.29,0,6.11.71,8.47,2.12,2.36,1.41,4.18,3.4,5.45,5.97,1.27,2.57,1.91,5.62,1.91,9.13s-.71,6.52-2.12,9.27c-1.41,2.76-3.32,4.93-5.73,6.53-2.41,1.6-5.16,2.4-8.27,2.4Z"/>
          <path d="m376.73,139.76c-1.58,0-2.92-.23-4.03-.69-1.11-.46-1.97-1.07-2.57-1.81-.6-.74-.9-1.53-.9-2.36,0-.79.22-1.39.66-1.81s1.01-.63,1.7-.63c.42,0,.79.06,1.11.17.32.12.65.27.97.45.32.18.67.35,1.04.49.37.14.81.21,1.32.21,1.34,0,2.38-.66,3.13-1.98.74-1.32,1.11-3.23,1.11-5.73,0-5.32-.16-9.92-.49-13.79-.33-3.87-.72-7.15-1.18-9.86s-.87-5-1.22-6.88-.52-3.48-.52-4.83.3-2.33.9-2.95c.6-.63,1.3-.94,2.08-.94.83,0,1.54.27,2.12.8.58.53,1.01,1.61,1.29,3.23.69,4.17,1.27,8.12,1.74,11.84.46,3.73.81,7.46,1.04,11.18.23,3.73.35,7.63.35,11.7,0,4.68-.88,8.21-2.64,10.59-1.76,2.38-4.1,3.58-7.02,3.58Zm4.24-58.7c-1.71,0-3.15-.51-4.31-1.53-1.16-1.02-1.74-2.25-1.74-3.68,0-1.25.45-2.28,1.35-3.09.9-.81,2.05-1.22,3.44-1.22,1.16,0,2.16.28,3.02.83.86.56,1.49,1.26,1.91,2.12.42.86.62,1.75.62,2.67s-.34,1.75-1.01,2.61c-.67.86-1.77,1.28-3.3,1.28Z"/>
          <path d="m409.45,122.39c-2.64,0-4.9-.37-6.77-1.11-1.87-.74-3.43-1.81-4.65-3.19-1.23-1.39-2.13-3.01-2.71-4.86-.58-1.85-.87-3.89-.87-6.11,0-2.36.43-4.73,1.29-7.12.86-2.38,2.09-4.56,3.72-6.53,1.62-1.97,3.57-3.55,5.83-4.76,2.27-1.2,4.82-1.81,7.64-1.81,2.18,0,4.07.39,5.7,1.18,1.62.79,2.88,1.96,3.79,3.51.9,1.55,1.35,3.51,1.35,5.87,0,1.9-.44,3.57-1.32,5-.88,1.44-2.1,2.65-3.65,3.65-1.55,1-3.37,1.76-5.45,2.29-2.08.53-4.33.8-6.74.8-2.78,0-4.72-.38-5.84-1.15-1.11-.76-1.67-1.61-1.67-2.54,0-.56.14-.96.42-1.22.28-.25.74-.38,1.39-.38.51,0,1.15.08,1.91.24.76.16,1.86.24,3.3.24,2.32,0,4.34-.29,6.08-.87,1.74-.58,3.11-1.4,4.13-2.47,1.02-1.06,1.53-2.29,1.53-3.68,0-1.57-.39-2.75-1.18-3.54-.79-.79-2.08-1.18-3.89-1.18s-3.46.42-4.97,1.25c-1.51.83-2.8,1.97-3.89,3.4-1.09,1.44-1.93,3.07-2.53,4.9-.6,1.83-.9,3.74-.9,5.73,0,1.67.28,3.16.83,4.48.56,1.32,1.46,2.39,2.71,3.2,1.25.81,2.94,1.22,5.07,1.22,2.5,0,4.6-.3,6.29-.9,1.69-.6,3.09-1.28,4.2-2.05,1.11-.76,2.05-1.44,2.82-2.02.76-.58,1.47-.87,2.12-.87s1.09.19,1.32.56c.23.37.35.97.35,1.81,0,.93-.45,1.91-1.35,2.95-.9,1.04-2.14,2.03-3.72,2.95-1.58.93-3.36,1.68-5.35,2.26s-4.1.87-6.32.87Z"/>
          <path d="m448.76,122.32c-3.29,0-6.11-.66-8.47-1.98s-4.18-3.17-5.45-5.56c-1.27-2.38-1.91-5.18-1.91-8.37,0-2.73.54-5.28,1.63-7.64s2.58-4.43,4.48-6.22c1.9-1.78,4.1-3.17,6.6-4.17,2.5-1,5.14-1.49,7.92-1.49.93,0,1.79.13,2.61.38.81.25,1.46.68,1.94,1.28.49.6.73,1.46.73,2.57,0,.83-.2,1.53-.59,2.08s-.98.83-1.77.83c-.51,0-.92-.08-1.22-.24-.3-.16-.63-.32-.97-.49-.35-.16-.91-.24-1.7-.24-2.55,0-4.83.6-6.84,1.81s-3.61,2.85-4.79,4.93c-1.18,2.08-1.77,4.47-1.77,7.15,0,1.9.38,3.54,1.15,4.93.76,1.39,1.87,2.48,3.34,3.26,1.46.79,3.16,1.18,5.1,1.18s3.6-.22,4.69-.66c1.09-.44,1.91-.95,2.47-1.53.56-.58,1.04-1.09,1.46-1.53.42-.44.95-.66,1.6-.66s1.16.21,1.53.62c.37.42.56,1,.56,1.74,0,1.57-.54,2.95-1.63,4.13-1.09,1.18-2.56,2.12-4.41,2.81-1.85.69-3.94,1.04-6.25,1.04Z"/>
          <path d="m481.76,122.6c-3.57,0-6.41-.86-8.54-2.57-2.13-1.71-3.67-4.12-4.62-7.22-.95-3.1-1.43-6.71-1.43-10.84,0-2.5.13-4.75.38-6.74.25-1.99.54-3.89.87-5.7.32-1.81.58-3.61.77-5.42.23-2.18.38-3.95.45-5.31.07-1.37.15-2.63.24-3.79.09-.65.33-1.23.69-1.74.37-.51,1-.76,1.88-.76,1.48,0,2.45.87,2.92,2.61.46,1.74.51,4.37.14,7.88-.23,1.85-.48,3.5-.73,4.93s-.49,2.84-.69,4.2c-.21,1.37-.39,2.8-.56,4.31-.16,1.51-.24,3.25-.24,5.24,0,3.71.32,6.65.97,8.82.65,2.18,1.62,3.73,2.92,4.65,1.3.93,2.89,1.39,4.79,1.39,1.16,0,2.04-.12,2.64-.35.6-.23,1.11-.45,1.53-.66.42-.21.93-.31,1.53-.31.65,0,1.16.21,1.53.63.37.42.56.97.56,1.67,0,1.3-.67,2.47-2.01,3.51-1.34,1.04-3.33,1.56-5.97,1.56Zm-8.4-26.95c-1.21.56-2.14.6-2.81.14-.67-.46-1.01-1.13-1.01-2.02,0-.97.24-1.83.73-2.57.49-.74,1.68-1.46,3.58-2.15,1.11-.42,2.33-.79,3.65-1.11,1.32-.32,2.65-.58,3.99-.76,1.34-.18,2.61-.28,3.82-.28.93,0,1.68.13,2.26.38.58.25,1.03.61,1.35,1.08.32.46.48,1.04.48,1.74,0,.79-.23,1.37-.69,1.74-.46.37-1.16.6-2.08.69-1.95.14-3.67.35-5.17.62-1.51.28-2.89.63-4.17,1.04-1.27.42-2.58.9-3.92,1.46Z"/>
          <path d="m505.03,122.39c-2.04,0-3.75-.26-5.14-.76-1.39-.51-2.42-1.16-3.09-1.94-.67-.79-1.01-1.6-1.01-2.43,0-.69.21-1.27.62-1.74.42-.46,1.02-.69,1.81-.69.46,0,.85.09,1.15.28.3.19.65.39,1.04.63.39.23.94.43,1.63.59.69.16,1.64.24,2.85.24,2.96,0,5.57-.36,7.82-1.08,2.24-.72,3.78-1.96,4.62-3.72-.33-1.02-1.03-1.83-2.12-2.43-1.09-.6-2.4-1.12-3.92-1.56-1.53-.44-3.11-.9-4.76-1.39-1.64-.49-3.16-1.05-4.55-1.7s-2.54-1.53-3.44-2.64c-.9-1.11-1.35-2.52-1.35-4.24,0-1.62.51-3.11,1.53-4.48,1.02-1.36,2.37-2.55,4.06-3.54,1.69-1,3.55-1.75,5.59-2.26,2.04-.51,4.1-.76,6.18-.76,1.25,0,2.29.21,3.13.63s1.47.92,1.91,1.49c.44.58.66,1.17.66,1.77,0,.69-.2,1.25-.59,1.67-.39.42-.98.63-1.77.63-.28,0-.56-.02-.83-.07-.28-.05-.61-.08-1.01-.1-.39-.02-.87-.03-1.42-.03-2.78,0-5.2.43-7.26,1.28-2.06.86-3.6,2.14-4.62,3.86.23.93.89,1.69,1.98,2.29,1.09.6,2.41,1.11,3.96,1.53,1.55.42,3.16.87,4.83,1.35,1.67.49,3.23,1.07,4.69,1.74,1.46.67,2.65,1.56,3.58,2.67.93,1.11,1.39,2.52,1.39,4.24,0,1.85-.49,3.45-1.46,4.79-.97,1.34-2.3,2.46-3.99,3.33-1.69.88-3.62,1.53-5.8,1.95-2.18.42-4.47.63-6.88.63Z"/>
        </g>
      </g>
      <rect class="cls-1" width="606" height="211"/>
    </g>
  </g>
</svg>