<?xml version="1.0" encoding="UTF-8"?>
<svg id="Laag_2" data-name="Laag 2" xmlns="http://www.w3.org/2000/svg" viewBox="0 0 609.5 211">
  <defs>
    <style>
      .cls-1 {
        fill: none;
      }

      .cls-2 {
        fill: #f7eac4;
        stroke: #212121;
        stroke-miterlimit: 10;
        stroke-width: 7px;
      }
    </style>
  </defs>
  <g id="Laag_1-2" data-name="Laag 1">
    <g>
      <g>
        <path class="cls-2" d="m596.42,55.36c-1.8-1.73-3.92-3.23-6.4-4.46-13.5-6.65-30.57-3-45-3.55-23.57-.9-47.17-.79-70.74-.31-17.64.36-35.47,2.55-52.72-1.21-15.2-3.32-33.87-17.74-49.66-12.24-3.1,1.08-6.8,6.38-11.02,7.97-5.35,2.02-13.67,2.01-19.36,2.29-32.55,1.62-66.3.92-98.63-1.47-18.02-1.33-35.72,1.44-53.74,1.44-24.46,0-42.27,9.86-61.53,24.11-11.14,8.24-23.69,13.81-34.62,21.88-9.8,7.25-5.62,10.76,3.5,19,11.17,10.09,24.49,18.72,36.71,27.61,14.54,10.59,40.32,25.66,57.87,31.17,17.57,5.51,37.72.54,56.09,2.44,79.61,8.24,158.68,11.69,238.17,5.29,12.88-1.04,31.14,1.68,43.26-2.83,4.78-1.78,6.9-6.17,10.55-7.64,7.03-2.84,15.03-.75,22.23-.4,6.61.33,31.37,4.61,37.53.35,10.32-7.13,5.25-53.52,6.43-66.89,1.26-14.19,1.77-32.3-8.93-42.55Z"/>
        <g>
          <path d="m223.84,113.29c-1.02,0-1.77-.22-2.26-.66-.49-.44-.73-1.03-.73-1.77,0-.6.19-1.1.56-1.49.37-.39,1-.75,1.88-1.08,5-1.9,10.74-3.29,17.23-4.17,6.48-.88,13.47-1.32,20.98-1.32,1.62,0,2.72.23,3.3.69.58.46.87,1.14.87,2.01,0,.93-.44,1.7-1.32,2.33-.88.63-2.18.94-3.89.94-5.33,0-9.79.15-13.41.45-3.61.3-6.63.67-9.07,1.11-2.43.44-4.46.89-6.08,1.35-1.62.46-3.05.85-4.27,1.15-1.23.3-2.49.45-3.78.45Zm37.16,13.62c-1.02,0-1.86-.43-2.53-1.28-.67-.86-1.4-2.3-2.19-4.34-.69-1.71-1.37-3.8-2.01-6.25s-1.23-5.05-1.74-7.78-.9-5.33-1.18-7.78c-.33-3.01-.63-5.58-.9-7.71-.28-2.13-.58-3.83-.9-5.11-.33-1.27-.73-2.21-1.22-2.81-.49-.6-1.15-.9-1.98-.9-1.25,0-2.65.98-4.2,2.95-1.55,1.97-3.09,4.76-4.62,8.37-1.53,3.61-2.96,7.94-4.31,12.99-1.34,5.05-2.43,10.67-3.26,16.88-.14.88-.38,1.55-.73,2.01-.35.46-.87.69-1.56.69-1.07,0-1.89-.36-2.47-1.08-.58-.72-.87-2-.87-3.85,0-2.69.27-5.36.8-8.02.53-2.66,1.17-5.34,1.91-8.02.74-2.68,1.41-5.41,2.01-8.16.6-2.75.97-5.52,1.11-8.3.04-.79.23-1.4.56-1.84.32-.44.83-.66,1.53-.66.65,0,1.27.18,1.88.56.6.37,1.16.95,1.67,1.74l-2.57.69c2.13-4.31,4.25-7.54,6.35-9.69,2.11-2.15,4.41-3.23,6.91-3.23,2.68,0,4.7.79,6.04,2.36,1.34,1.57,2.35,3.99,3.02,7.26.67,3.26,1.26,7.49,1.77,12.68.46,3.84,1.02,7.15,1.67,9.93s1.3,5.14,1.95,7.08c.65,1.95,1.2,3.57,1.67,4.86.46,1.3.69,2.43.69,3.4,0,.74-.2,1.32-.59,1.74s-.96.63-1.7.63Z"/>
          <path d="m281.77,126.98c-.97,0-1.95-.08-2.92-.24-.97-.16-1.87-.42-2.71-.76-.83-.35-1.49-.8-1.98-1.35-.49-.56-.73-1.25-.73-2.08,0-.79.23-1.38.69-1.77.46-.39,1.06-.59,1.81-.59.65,0,1.42.13,2.33.38s1.79.38,2.68.38c2.45,0,4.8-.32,7.05-.97,2.25-.65,4.24-1.61,5.97-2.88,1.74-1.27,3.1-2.88,4.1-4.83.99-1.95,1.49-4.17,1.49-6.67,0-1.39-.16-2.68-.48-3.89-.33-1.2-.92-2.18-1.77-2.92-.86-.74-2.07-1.11-3.65-1.11-2.22,0-4.17.94-5.83,2.81-1.67,1.87-3.08,4.48-4.24,7.81s-2.15,7.15-2.99,11.46c-.19.83-.46,1.42-.83,1.77-.37.35-.81.52-1.32.52-.65,0-1.23-.41-1.74-1.22s-.88-1.91-1.11-3.3c-.46-2.5-.85-5.01-1.15-7.54-.3-2.52-.52-4.87-.66-7.05-.14-2.18-.21-4.03-.21-5.56,0-2.69.06-5.01.17-6.98.12-1.97.24-3.72.38-5.24.14-1.53.27-2.95.38-4.27.11-1.32.17-2.67.17-4.06-.05-.88.13-1.64.52-2.29.39-.65,1.01-.97,1.84-.97.69,0,1.32.2,1.87.59.56.39,1.01.98,1.35,1.77.35.79.52,1.76.52,2.92,0,1.34-.06,2.64-.17,3.89-.12,1.25-.24,2.57-.38,3.96-.14,1.39-.27,3-.38,4.83s-.17,4.02-.17,6.56c0,1.81.04,3.77.14,5.91s.25,4.51.49,7.15l-1.46-2.29c.79-4.07,1.99-7.39,3.61-9.93,1.62-2.55,3.43-4.41,5.42-5.59,1.99-1.18,3.94-1.77,5.83-1.77,2.32,0,4.38.51,6.18,1.53,1.81,1.02,3.23,2.61,4.27,4.76,1.04,2.15,1.56,4.94,1.56,8.37,0,3.24-.66,6.14-1.98,8.68-1.32,2.55-3.11,4.72-5.38,6.53-2.27,1.81-4.84,3.18-7.71,4.13s-5.83,1.42-8.89,1.42Z"/>
          <path d="m331.44,127.12c-3.52,0-6.66-.75-9.41-2.26-2.76-1.5-4.91-3.59-6.46-6.25-1.55-2.66-2.33-5.71-2.33-9.13,0-2.59.48-4.94,1.43-7.05.95-2.11,2.14-3.92,3.58-5.45,1.43-1.53,2.88-2.7,4.34-3.51,1.46-.81,2.7-1.22,3.72-1.22.51,0,.94.07,1.28.21.35.14.64.36.87.66.23.3.35.71.35,1.22,0,.93-.2,1.76-.59,2.5-.39.74-1.19,1.44-2.4,2.08-1.48.88-2.69,1.84-3.61,2.88-.93,1.04-1.62,2.18-2.08,3.4-.46,1.23-.69,2.56-.69,3.99,0,3.75,1.06,6.75,3.19,9s5,3.37,8.61,3.37c3.06,0,5.51-1.17,7.36-3.51,1.85-2.34,2.78-5.45,2.78-9.34,0-3.57-.8-6.36-2.4-8.37s-3.78-3.02-6.56-3.02c-1.48,0-2.66.28-3.54.83-.88.56-1.78,1.3-2.71,2.22-.74.69-1.29,1.32-1.63,1.87s-.71.98-1.08,1.29c-.37.3-.86.45-1.46.45-.65,0-1.17-.2-1.56-.59-.39-.39-.59-1.08-.59-2.05,0-1.06.33-2.16,1.01-3.3.67-1.13,1.57-2.18,2.71-3.13,1.13-.95,2.4-1.72,3.78-2.33,1.39-.6,2.85-.9,4.38-.9,3.29,0,6.11.71,8.47,2.12,2.36,1.41,4.18,3.4,5.45,5.97,1.27,2.57,1.91,5.62,1.91,9.13s-.71,6.52-2.12,9.27c-1.41,2.76-3.32,4.93-5.73,6.53-2.41,1.6-5.16,2.4-8.27,2.4Z"/>
          <path d="m372.21,126.98c-2.87,0-5.36-.62-7.47-1.84s-3.84-2.87-5.21-4.93c-1.37-2.06-2.36-4.34-2.99-6.84-.62-2.5-.94-5-.94-7.5,0-2.22.17-4.28.52-6.18.35-1.9.84-3.73,1.49-5.49.28-.69.64-1.22,1.08-1.56s1.01-.52,1.7-.52c.88,0,1.58.29,2.12.87.53.58.8,1.35.8,2.33,0,.74-.08,1.42-.24,2.05s-.35,1.31-.56,2.05c-.21.74-.39,1.62-.56,2.64-.16,1.02-.24,2.32-.24,3.89,0,2.27.24,4.33.73,6.18.48,1.85,1.18,3.45,2.08,4.79.9,1.34,2,2.39,3.3,3.13,1.3.74,2.71,1.11,4.24,1.11,1.9,0,3.52-.71,4.86-2.12,1.34-1.41,2.36-3.51,3.06-6.29.69-2.78,1.04-6.23,1.04-10.35,0-1.3-.02-2.37-.07-3.23-.05-.86-.12-1.62-.21-2.29-.09-.67-.14-1.38-.14-2.12,0-.93.17-1.63.52-2.12s.91-.73,1.7-.73c.93,0,1.69.3,2.29.9.6.6,1.09,1.63,1.46,3.09.37,1.46.56,3.48.56,6.08,0,5.6-.62,10.26-1.84,13.96-1.23,3.71-2.95,6.47-5.17,8.3-2.22,1.83-4.86,2.74-7.92,2.74Z"/>
          <path d="m410.83,127.19c-3.57,0-6.41-.86-8.54-2.57-2.13-1.71-3.67-4.12-4.62-7.22-.95-3.1-1.43-6.71-1.43-10.84,0-2.5.13-4.75.38-6.74.25-1.99.54-3.89.87-5.7.32-1.81.58-3.61.77-5.42.23-2.18.38-3.95.45-5.31.07-1.37.15-2.63.24-3.79.09-.65.33-1.23.69-1.74.37-.51,1-.76,1.88-.76,1.48,0,2.45.87,2.92,2.61.46,1.74.51,4.37.14,7.88-.23,1.85-.48,3.5-.73,4.93s-.49,2.84-.69,4.2c-.21,1.37-.39,2.8-.56,4.31-.16,1.51-.24,3.25-.24,5.24,0,3.71.32,6.65.97,8.82.65,2.18,1.62,3.73,2.92,4.65,1.3.93,2.89,1.39,4.79,1.39,1.16,0,2.04-.12,2.64-.35.6-.23,1.11-.45,1.53-.66.42-.21.93-.31,1.53-.31.65,0,1.16.21,1.53.63.37.42.56.97.56,1.67,0,1.3-.67,2.47-2.01,3.51-1.34,1.04-3.33,1.56-5.97,1.56Zm-8.4-26.95c-1.21.56-2.14.6-2.81.14-.67-.46-1.01-1.13-1.01-2.02,0-.97.24-1.83.73-2.57.49-.74,1.68-1.46,3.58-2.15,1.11-.42,2.33-.79,3.65-1.11,1.32-.32,2.65-.58,3.99-.76,1.34-.18,2.61-.28,3.82-.28.93,0,1.68.13,2.26.38.58.25,1.03.61,1.35,1.08.32.46.48,1.04.48,1.74,0,.79-.23,1.37-.69,1.74-.46.37-1.16.6-2.08.69-1.95.14-3.67.35-5.17.62-1.51.28-2.89.63-4.17,1.04-1.27.42-2.58.9-3.92,1.46Z"/>
          <path d="m454.31,126.91c-.93,0-1.66-.43-2.19-1.28-.53-.86-.9-1.97-1.11-3.33-.21-1.37-.31-2.81-.31-4.34s.04-3.11.14-4.76c.09-1.64.2-3.28.31-4.9.12-1.62.17-3.19.17-4.72,0-1.25-.1-2.42-.31-3.51-.21-1.09-.31-2.16-.31-3.23,0-.56.22-1.05.66-1.49.44-.44,1.05-.66,1.84-.66.93,0,1.64.32,2.15.97.51.65.89,1.56,1.14,2.74s.38,2.61.38,4.27l-1.11,1.25c.74-2.92,1.56-5.28,2.47-7.09s1.93-3.14,3.09-3.99c1.16-.86,2.38-1.28,3.68-1.28,1.67,0,3.07.69,4.2,2.08,1.13,1.39,2.07,3.37,2.81,5.94.74,2.57,1.36,5.59,1.87,9.06.46,3.01.88,5.28,1.25,6.81.37,1.53.79,2.73,1.25,3.61l-1.95-.35c1.25-5.37,2.7-10.1,4.34-14.17,1.64-4.07,3.43-7.26,5.35-9.55s3.86-3.44,5.8-3.44c2.87,0,4.94,1.38,6.22,4.13,1.27,2.76,2.19,6.98,2.74,12.68.28,3.1.63,5.55,1.04,7.33.42,1.78.81,3.15,1.18,4.1.37.95.67,1.74.9,2.36.23.63.35,1.38.35,2.26s-.29,1.52-.87,1.91c-.58.39-1.31.59-2.19.59-.97,0-1.85-.52-2.64-1.56-.79-1.04-1.45-2.66-1.98-4.86-.53-2.2-1.03-5.06-1.49-8.58-.33-2.87-.62-5.17-.87-6.91-.25-1.74-.53-3.11-.83-4.13-.3-1.02-.64-1.83-1.01-2.43-.37-.6-.83-1.18-1.39-1.74l1.53-.21c-2.04,1.9-3.74,4.18-5.11,6.84-1.37,2.66-2.56,5.71-3.58,9.13-1.02,3.43-2.08,7.2-3.2,11.32-.28,1.02-.73,1.8-1.35,2.33-.63.53-1.33.8-2.12.8-1.21,0-2.22-.56-3.06-1.67-.83-1.11-1.53-2.68-2.08-4.72-.56-2.04-1.02-4.49-1.39-7.36-.33-2.32-.65-4.35-.97-6.11-.32-1.76-.68-3.3-1.08-4.62-.39-1.32-.83-2.45-1.32-3.4-.48-.95-1.1-1.77-1.84-2.47l1.87.49c-1.39,1.16-2.58,2.72-3.58,4.69-1,1.97-1.81,4.18-2.43,6.63-.62,2.45-1.12,4.98-1.49,7.57-.37,2.59-.67,5.14-.9,7.64-.09,1.25-.39,2.12-.9,2.61-.51.49-1.11.73-1.81.73Z"/>
          <path d="m523.92,126.98c-2.64,0-4.9-.37-6.77-1.11-1.87-.74-3.43-1.81-4.65-3.19-1.23-1.39-2.13-3.01-2.71-4.86-.58-1.85-.87-3.89-.87-6.11,0-2.36.43-4.73,1.29-7.12.86-2.38,2.09-4.56,3.72-6.53,1.62-1.97,3.57-3.55,5.83-4.76,2.27-1.2,4.82-1.81,7.64-1.81,2.18,0,4.07.39,5.7,1.18,1.62.79,2.88,1.96,3.79,3.51.9,1.55,1.35,3.51,1.35,5.87,0,1.9-.44,3.57-1.32,5-.88,1.44-2.1,2.65-3.65,3.65-1.55,1-3.37,1.76-5.45,2.29-2.08.53-4.33.8-6.74.8-2.78,0-4.72-.38-5.84-1.15-1.11-.76-1.67-1.61-1.67-2.54,0-.56.14-.96.42-1.22.28-.25.74-.38,1.39-.38.51,0,1.15.08,1.91.24.76.16,1.86.24,3.3.24,2.32,0,4.34-.29,6.08-.87,1.74-.58,3.11-1.4,4.13-2.47,1.02-1.06,1.53-2.29,1.53-3.68,0-1.57-.39-2.75-1.18-3.54-.79-.79-2.08-1.18-3.89-1.18s-3.46.42-4.97,1.25c-1.51.83-2.8,1.97-3.89,3.4-1.09,1.44-1.93,3.07-2.53,4.9-.6,1.83-.9,3.74-.9,5.73,0,1.67.28,3.16.83,4.48.56,1.32,1.46,2.39,2.71,3.2,1.25.81,2.94,1.22,5.07,1.22,2.5,0,4.6-.3,6.29-.9,1.69-.6,3.09-1.28,4.2-2.05,1.11-.76,2.05-1.44,2.82-2.02.76-.58,1.47-.87,2.12-.87s1.09.19,1.32.56c.23.37.35.97.35,1.81,0,.93-.45,1.91-1.35,2.95-.9,1.04-2.14,2.03-3.72,2.95-1.58.93-3.36,1.68-5.35,2.26s-4.1.87-6.32.87Z"/>
        </g>
      </g>
      <rect class="cls-1" width="606" height="211"/>
    </g>
  </g>
</svg>