<?xml version="1.0" encoding="UTF-8"?>
<svg id="Laag_2" data-name="Laag 2" xmlns="http://www.w3.org/2000/svg" height="26" width="26" viewBox="0 0 206.94 193.02">
  <defs>
    <style>
      .cls-1 {
        fill: #fff;
        stroke: #212121;
        stroke-miterlimit: 10;
        stroke-width: 10px;
      }
    </style>
  </defs>
  <g id="Laag_1-2" data-name="Laag 1">
    <path class="cls-1" d="m201.53,71.64c.03.15.05.31.07.46.02.16.09.36.25.37s.06-.34-.03-.2c-2.92,16.41-2.99,33.22-6.97,49.43-2.77,11.3-7.32,22.38-14.46,31.64-7.05,9.13-5.51,26.09-16.51,31.09-7.03,2.35-14.98,3.36-23.52,3.59-2.13-.06-4.29-.2-6.5-.37-14.01-1.08-28.01-2.13-42.03-3.01-1.87-.12-3.89.17-5.56-.65-13.39-6.56-27.82-19.42-37.01-29.63-7-7.79-12.05-17.02-17.85-25.68-2.88-4.31-5.94-8.47-9.53-12.25-6.56-6.92-19.54-17.96-16.41-28.2,3.57-11.66,16.2-6.44,23.84-2.2.47.26.93.52,1.36.77,7.51,4.37,13.94,10.31,20.35,16.1,1.35,1.22,3.4,3.34,5.6,5.01.87,1.89,2.24,3.57,4.41,2.35.53.13,1.05.18,1.55.12.25-.03.44-1.63.59-4.03.4-2.32.42-5.43.29-8.6.12-6.02.12-12.14.13-13.1.11-12.64-1.04-25.53-1.33-38.31-.04-1.77-.06-3.53-.06-5.29,0-7.34,0-14.9,2.21-21.97,1.39-4.49,3.56-9.72,7.53-12.53,6.13-4.34,12.57,1.23,14.94,6.88,4.47,10.66,6.64,22.21,6.81,33.75.09,6.29.45,12.57.79,18.86.2,3.75,0,7.62,1.35,11.2.12.33.27.67.56.87.73.5,1.68-.24,2.16-.99,1.1-1.72,1.62-3.75,2.04-5.75.77-3.64,1.28-7.34,1.53-11.06.23-3.41.24-6.88,1.26-10.14,2.76-8.85,16.25-12.64,22.69-5.5,5.38,5.97,6.39,15.98,5.91,23.64-.14,2.3-.21,4.68.57,6.85.99,2.75,2.94,6.29,5.97,4.11,4.43-3.21,1.98-17.53,1.89-22.02-.18-8.53,3.98-14.14,13.12-13.15,9.43,1.01,13.59,7.75,13.64,16.67.06,11.51-2.05,13.57,1.43,24.73,1.24,3.96,5.03,3.02,6.22-.2,2.71-7.29-1.71-26.23,10.76-25.89,7.86.22,14.64,4.4,15.95,12.24Z"/>
  </g>
</svg>