<?xml version="1.0" standalone="no"?>
<!DOCTYPE svg PUBLIC "-//W3C//DTD SVG 20010904//EN"
 "http://www.w3.org/TR/2001/REC-SVG-20010904/DTD/svg10.dtd">
<svg version="1.0" xmlns="http://www.w3.org/2000/svg"
 width="933.000000pt" height="933.000000pt" viewBox="0 0 933.000000 933.000000"
 preserveAspectRatio="xMidYMid meet">
<metadata>
Created by potrace 1.14, written by Peter Selinger 2001-2017
</metadata>
<g transform="translate(0.000000,933.000000) scale(0.100000,-0.100000)"
fill="#000000" stroke="none">
<path d="M4955 8305 c-27 -8 -63 -17 -80 -20 -16 -3 -48 -11 -70 -16 -38 -11
-50 -14 -96 -24 -11 -2 -30 -7 -41 -11 -11 -3 -30 -7 -41 -9 -12 -2 -31 -6
-42 -8 -11 -3 -40 -10 -65 -16 -41 -11 -71 -18 -110 -26 -8 -2 -15 -4 -15 -5
0 -1 -9 -3 -21 -5 -12 -3 -113 -27 -226 -54 -112 -28 -215 -52 -229 -54 -13
-3 -53 -13 -89 -22 -36 -9 -74 -19 -85 -21 -11 -2 -49 -11 -84 -20 -36 -9 -73
-18 -83 -20 -10 -2 -27 -6 -38 -9 -11 -3 -28 -7 -37 -9 -10 -2 -45 -11 -79
-20 -33 -8 -69 -17 -80 -19 -10 -2 -30 -7 -44 -10 -14 -4 -90 -22 -170 -41
-80 -19 -185 -44 -235 -56 -49 -12 -94 -23 -100 -24 -45 -9 -97 -44 -181 -121
-6 -5 -35 -30 -64 -55 -30 -25 -92 -78 -139 -118 -47 -41 -101 -81 -119 -90
-212 -109 -194 -95 -349 -270 -14 -15 -35 -43 -47 -62 -13 -19 -42 -50 -64
-68 -23 -19 -51 -43 -64 -54 -13 -11 -45 -38 -73 -61 -27 -23 -56 -49 -65 -57
-9 -8 -36 -31 -60 -51 -25 -20 -55 -45 -66 -55 -12 -11 -38 -32 -59 -49 -20
-16 -46 -39 -59 -50 -12 -11 -44 -38 -70 -60 -40 -33 -74 -84 -91 -135 -9 -26
-60 -143 -76 -172 -5 -10 -9 -25 -9 -33 0 -8 -4 -15 -10 -15 -5 0 -9 -3 -8 -7
3 -10 -61 -163 -74 -180 -6 -7 -7 -13 -4 -13 4 0 1 -12 -8 -27 -8 -16 -21 -45
-30 -65 -35 -82 -44 -105 -64 -148 -11 -25 -34 -81 -52 -125 -19 -44 -37 -82
-40 -85 -10 -7 -130 -159 -130 -164 0 -2 -8 -21 -17 -42 -9 -22 -18 -43 -19
-49 -2 -12 -66 -187 -97 -265 -12 -32 -20 -73 -19 -99 1 -36 -14 -81 -82 -240
-158 -367 -200 -466 -196 -466 1 0 -6 -13 -14 -30 -9 -16 -12 -32 -8 -36 6 -6
87 -35 370 -134 51 -18 96 -36 99 -39 4 -3 13 -6 21 -6 8 0 28 -6 45 -14 18
-8 46 -17 62 -22 17 -4 35 -8 40 -10 6 -1 21 -5 35 -8 14 -3 108 -26 210 -51
446 -111 432 -108 650 -130 47 -5 74 -7 195 -20 28 -3 64 -7 80 -9 17 -2 64
-7 105 -11 41 -3 86 -8 100 -10 14 -2 54 -7 90 -10 101 -10 132 -13 180 -19
62 -7 145 -16 210 -21 30 -2 66 -6 80 -9 14 -2 57 -7 95 -11 39 -3 88 -8 110
-10 22 -3 60 -7 85 -9 25 -3 72 -8 105 -12 71 -8 87 -9 185 -19 41 -4 89 -9
105 -11 17 -2 57 -6 90 -10 33 -3 76 -7 95 -9 35 -4 147 -14 225 -20 22 -2 43
-3 46 -4 3 -1 -5 -63 -18 -138 -24 -142 -33 -199 -38 -243 -2 -14 -8 -45 -13
-70 -6 -25 -13 -65 -17 -90 -3 -25 -13 -83 -21 -130 -9 -47 -17 -99 -20 -117
-4 -29 -53 -181 -74 -228 -10 -23 -51 -135 -55 -150 -1 -5 -5 -17 -8 -25 -4
-8 -18 -49 -32 -90 -15 -41 -29 -82 -32 -90 -4 -8 -7 -17 -7 -20 -3 -11 -58
-166 -67 -185 -10 -25 -101 -276 -104 -290 -1 -5 -6 -21 -12 -35 -57 -141 -60
-165 -29 -233 8 -18 26 -59 39 -92 24 -57 28 -61 74 -74 26 -7 57 -17 68 -22
11 -4 43 -15 70 -23 28 -8 108 -33 179 -55 71 -23 155 -44 185 -46 60 -5 137
-12 229 -20 31 -3 82 -7 112 -10 30 -2 80 -7 110 -9 30 -3 80 -8 110 -10 30
-3 82 -8 115 -11 197 -19 312 -22 430 -11 141 13 168 15 250 21 44 3 105 8
135 11 30 2 77 7 105 9 33 3 54 10 62 22 7 10 17 23 23 30 5 7 10 14 10 17 0
3 18 34 40 68 22 35 40 72 40 83 0 11 -11 70 -25 130 -15 61 -28 119 -30 130
-2 11 -13 61 -25 110 -11 50 -22 99 -24 110 -5 23 -8 39 -37 160 -11 50 -23
99 -25 110 -2 11 -13 62 -25 113 -11 52 -22 99 -23 105 -2 7 -6 23 -9 37 -4
14 -9 36 -11 50 -3 14 -16 76 -30 138 -20 88 -27 151 -31 290 -10 324 -14 459
-19 570 l-5 110 57 -3 c31 -2 104 -6 162 -9 204 -13 256 -17 335 -21 44 -2
114 -7 155 -9 232 -16 323 -19 602 -20 170 0 308 -3 308 -6 0 -7 1207 -5 1250
2 19 4 35 7 35 8 0 3 169 39 210 45 11 1 38 8 60 13 22 6 53 13 69 16 130 23
167 35 198 65 9 9 39 32 67 51 l52 35 -6 50 c-3 28 -7 64 -10 80 -2 17 -6 46
-9 65 -3 19 -9 60 -15 90 -5 30 -12 73 -15 95 -3 22 -8 51 -10 65 -3 14 -10
61 -16 105 -7 44 -14 89 -16 100 -2 11 -7 40 -10 65 -3 25 -8 53 -10 63 -10
52 -28 183 -26 190 11 41 7 96 -9 134 -21 50 -31 89 -43 178 -3 22 -8 51 -10
65 -4 22 -22 135 -31 200 -2 14 -6 39 -9 56 -3 17 -8 48 -11 70 -2 21 -7 50
-10 64 -3 14 -7 41 -9 60 -2 19 -6 49 -9 65 -3 17 -9 50 -12 75 -4 25 -9 54
-11 65 -2 11 -11 65 -19 120 -8 55 -17 109 -19 120 -2 12 -7 46 -11 77 -8 62
-8 62 -159 193 -39 33 -82 71 -96 85 -14 14 -50 45 -80 70 -29 25 -70 61 -91
80 -20 19 -63 58 -95 85 -32 28 -76 67 -98 87 -23 21 -64 57 -92 80 -34 29
-67 70 -98 126 -25 45 -46 86 -46 91 0 5 -3 11 -7 13 -10 4 -37 50 -59 101 -9
20 -20 37 -25 37 -5 0 -9 9 -9 19 0 11 -3 21 -7 23 -5 2 -16 19 -27 38 -49 93
-79 146 -90 156 -6 7 -49 25 -96 42 -47 17 -136 49 -199 71 -63 23 -121 43
-130 44 -9 2 -25 8 -36 14 -11 5 -32 13 -48 17 -15 4 -36 15 -47 26 -11 11
-37 30 -58 44 -21 13 -45 30 -53 38 -8 7 -22 18 -31 23 -9 6 -68 47 -131 93
-64 45 -137 91 -164 102 -87 34 -398 152 -408 154 -5 2 -23 9 -40 15 -16 7
-55 22 -85 33 -30 11 -64 23 -75 28 -11 5 -103 41 -205 79 -102 38 -196 74
-210 80 -14 5 -98 37 -186 70 -89 33 -172 65 -185 70 -92 38 -192 71 -211 70
-13 0 -45 -7 -73 -14z"/>
</g>
</svg>
